Coordinates
version=1
nRows=17
nColumns=24
inDegrees=yes

Units are S.I. units (second, meters, Newtons, ...)
If the header above contains a line with 'inDegrees', this indicates whether rotational values are in degrees (yes) or radians (no).

endheader
time	pelvis_tilt	pelvis_list	pelvis_rotation	pelvis_tx	pelvis_ty	pelvis_tz	hip_flexion_r	hip_adduction_r	hip_rotation_r	knee_angle_r	ankle_angle_r	subtalar_angle_r	mtp_angle_r	hip_flexion_l	hip_adduction_l	hip_rotation_l	knee_angle_l	ankle_angle_l	subtalar_angle_l	mtp_angle_l	lumbar_extension	lumbar_bending	lumbar_rotation
      7.50000000000000000000	      1.98856048023398690461	    -11.02211324095938849155	      3.26160224697186684750	      0.04617954320039382304	      0.84318751079357723288	     -0.00793778851091947284	    -21.28020851389662837505	     12.78010298528035448840	     -0.66844210106970292085	    -10.17920078543959760964	     10.03887098448268666573	      0.00000000000000000000	      0.00000000000000000000	     30.62963132547240618919	     -9.52214207641905474588	      2.95364537067047416841	    -11.70541298928336715335	      2.89272703140066189675	      0.00000000000000000000	      0.00000000000000000000	    -17.12115632583536495304	     11.93103918231627424973	      6.12859549514213153287
      7.50833333333333285964	      2.08798921684268856680	    -11.07978436388547649472	      3.28842450913554440461	      0.04816659668269646782	      0.84138128538911727272	     -0.00893795057319224720	    -21.71151500944506196333	     12.79055169890069798555	     -0.65005469410311844669	    -11.29391582431349583260	      9.86619122101774159717	      0.00000000000000000000	      0.00000000000000000000	     30.74155863389839993260	     -9.48024519923136566035	      2.52837590656662047905	    -13.39725052317551678982	      2.16966160624044412941	      0.00000000000000000000	      0.00000000000000000000	    -16.97678503618669054731	     11.94073701473911874871	      6.25221838975448651610
      7.51666666666666660745	      2.13361794114837222125	    -11.05230060020349647232	      3.34678288968021320215	      0.05005721482020001473	      0.83971047350116734265	     -0.01006858390409296096	    -21.94661154342033526632	     12.72475947915865646110	     -0.73884186864060441557	    -12.61448966300550722508	      9.55432809861701137777	      0.00000000000000000000	      0.00000000000000000000	     30.79822193188675782949	     -9.31013354280694116483	      2.30998530093851828227	    -14.68966752438701917072	      0.50534594686232026106	      0.00000000000000000000	      0.00000000000000000000	    -16.78150355852633168752	     11.86473792486578027194	      6.26878883230804628823
      7.52499999999999857891	      1.82235227963487655956	    -10.97998768348940146211	      3.40204905402680246596	      0.05172628877306503781	      0.83783153139294586076	     -0.01143010636807160162	    -21.60175256794203946242	     12.60258800986171578984	     -0.91375793854541098593	    -14.24090258284527443777	      9.30725739851671818315	      0.00000000000000000000	      0.00000000000000000000	     31.26536343832662367959	     -8.99939201986079062578	      2.45162647318328108526	    -15.81414629753716916127	     -1.55562258558447386037	      0.00000000000000000000	      0.00000000000000000000	    -16.18947018143705207649	     11.75684345440086175927	      6.23266849853876170329
      7.53333333333333321491	      1.48759193378912302208	    -10.85549286332703644575	      3.59884792192646063569	      0.05308235523583161586	      0.83606365634140766829	     -0.01322126719889055169	    -21.04710946755616163273	     12.45696263834115491420	     -1.22126238957589206002	    -16.09319350348026134156	      8.97631962376398107040	      0.00000000000000000000	      0.00000000000000000000	     31.92903246686985596625	     -8.53977375924290349474	      3.05112845806678834037	    -17.20454335509055354692	     -3.18640287268451105618	      0.00000000000000000000	      0.00000000000000000000	    -15.59216983807725398492	     11.64941571854502377903	      6.05905974558571269739
      7.54166666666666696273	      1.13314134690300094555	    -10.65596009383216546951	      3.70245311471054971975	      0.05433083544505623586	      0.83455069998668707232	     -0.01508614822110531002	    -20.26234820503640676748	     12.18227934135268775151	     -1.48130297456685178226	    -18.28449679178483933129	      8.48071826070368395278	      0.00000000000000000000	      0.00000000000000000000	     32.67170663206751868302	     -8.05229473471581158606	      3.88005080597734064440	    -18.98653333202954129888	     -4.04136562817769817713	      0.00000000000000000000	      0.00000000000000000000	    -15.01997926289626938967	     11.45892373149965060009	      5.92243881850219189289
      7.54999999999999982236	      0.95801954993601112776	    -10.23105727449254054306	      3.66791419094084236718	      0.05584149569887429665	      0.83368972016562059579	     -0.01672834305314157416	    -19.55202728551063628970	     11.62687343177006482620	     -1.65111494032398731235	    -20.68578933622423576821	      7.75006576756730947153	      0.00000000000000000000	      0.00000000000000000000	     33.13263175249203840167	     -7.48376461895749134356	      4.58351239191420578578	    -21.02358176834909642139	     -4.28933896551383853080	      0.00000000000000000000	      0.00000000000000000000	    -14.67338577027993906654	     10.97354236395351456679	      5.89374530249268158144
      7.55833333333333357018	      0.92828216342259539662	     -9.67186542718524222551	      3.47100013984290356461	      0.05747014868821922334	      0.83341813765244465717	     -0.01815866818725897155	    -18.83036044168323996928	     10.86702753441497648623	     -1.71219269132452156512	    -23.35199981835701876776	      6.79472875598650105644	      0.00000000000000000000	      0.00000000000000000000	     33.34267015055140603863	     -6.90340312140768741500	      5.07202562640074638978	    -23.17333959184568925593	     -4.12363991589591805109	      0.00000000000000000000	      0.00000000000000000000	    -14.53674533038148908304	     10.30813460977769402405	      6.06124996318828301867
      7.56666666666666642982	      1.05123383183591356804	     -8.92684514118051453124	      3.23609813419027503301	      0.05917502686677610785	      0.83363703502145403146	     -0.01966364220878130328	    -18.09213981122493919429	      9.86412298316911595464	     -1.84039858900937458586	    -26.26358717514690255257	      5.55219200041528715417	      0.00000000000000000000	      0.00000000000000000000	     33.26784404941373907150	     -6.16929606017076093138	      5.21814581753290163135	    -25.26052334828357004426	     -3.77609527867846139770	      0.00000000000000000000	      0.00000000000000000000	    -14.59025066868833597766	      9.44554153714160982247	      6.16912489022757526413
      7.57500000000000017764	      1.15309171990785652717	     -8.12244243313998914857	      2.90186841950111151789	      0.06072879337668814215	      0.83400297841183024250	     -0.02129868797295716640	    -17.08287615174047857636	      8.70486623293024841530	     -1.99168263724878125132	    -29.49719224085555779880	      3.95285491154407031544	      0.00000000000000000000	      0.00000000000000000000	     33.09342428137745883987	     -5.38404216156631854062	      5.06675850488072399003	    -27.20416892910311901232	     -3.16612412600419679265	      0.00000000000000000000	      0.00000000000000000000	    -14.65363580851731839516	      8.54215877481328078602	      6.35905551711211280974
      7.58333333333333303727	      1.23607737192970090767	     -7.27639110588363102750	      2.53510242155212672799	      0.06208527024748972112	      0.83443597956638948521	     -0.02307989213673025328	    -15.83018125437429901581	      7.42090715558010671771	     -2.23166091670323751828	    -32.96488061927618673508	      2.02890711297495762722	      0.00000000000000000000	      0.00000000000000000000	     32.79893704144403443479	     -4.54410216211579243151	      4.74207690234947953911	    -28.93458501221044443241	     -2.11773648758169041884	      0.00000000000000000000	      0.00000000000000000000	    -14.71843535647631640018	      7.63096979283785703529	      6.51454724817263652881
      7.59166666666666678509	      1.21405853417284248508	     -6.40187456256955211842	      2.11217335827064944809	      0.06304519138236064357	      0.83485618087625823591	     -0.02469733297846696610	    -14.23144353244654602975	      6.05918260774926231704	     -2.48536805527935378279	    -36.65184386939900207381	     -0.09378969478898786793	      0.00000000000000000000	      0.00000000000000000000	     32.43802462233547601045	     -3.68796110271480870324	      4.40033418783517404904	    -30.31468092522453261495	     -0.83944428076518107229	      0.00000000000000000000	      0.00000000000000000000	    -14.70597309267130015087	      6.67570436152143997788	      6.71739179569544209158
      7.59999999999999964473	      1.08182799244730909471	     -5.45725857684485671228	      1.69905992764798496886	      0.06362317684123663941	      0.83526805336806253521	     -0.02608761463431059566	    -12.35003147824393288090	      4.62485652136465219542	     -2.71876635947949329974	    -40.41277724070084076402	     -2.46042678824882266042	      0.00000000000000000000	      0.00000000000000000000	     32.01856956053715919097	     -2.74560257426249298973	      4.05889773642940365761	    -31.29089189272812632225	      0.41434885403035820461	      0.00000000000000000000	      0.00000000000000000000	    -14.58979156980790037323	      5.62542887407435276970	      6.69257109141777917216
      7.60833333333333339255	      0.70768827914910881205	     -4.58895183879592849507	      1.12640823199433093293	      0.06360642540065281070	      0.83552385058070899326	     -0.02705509063034895745	     -9.99712113611993125062	      3.27995541551948166514	     -2.61130492862441254687	    -44.25236108214501484781	     -5.15243461593981422197	      0.00000000000000000000	      0.00000000000000000000	     31.73415283660878927208	     -1.94302308016211489061	      3.61773328055227283429	    -31.93866409758584268275	      1.68251814573796165675	      0.00000000000000000000	      0.00000000000000000000	    -14.25238765832859400007	      4.62726718193435537785	      6.82276729792068525882
      7.61666666666666625218	      0.28412204298216503506	     -3.68089918230605439575	      0.61970712909198721885	      0.06330380330172595549	      0.83585015770710846539	     -0.02797078615201228566	     -7.50904614773340473022	      1.93664624335172752545	     -2.46464437903545929842	    -47.91700587998226268382	     -8.16885656737168197594	      0.00000000000000000000	      0.00000000000000000000	     31.40269376000930989790	     -1.08581548811443528990	      3.06711777884601133337	    -32.31925732760922898024	      2.84407376018541979690	      0.00000000000000000000	      0.00000000000000000000	    -13.84705945946663341317	      3.59967806032766413082	      6.77481996555652887793
      7.62500000000000000000	     -0.26775490400334156504	     -2.83807940726873964010	      0.06734422543726886756	      0.06256944509211750938	      0.83614799393364469537	     -0.02857732388371543933	     -4.77943117117819404882	      0.75440550210039936108	     -2.05469962775508196984	    -51.44431076648277212371	    -11.31311415886388260787	      0.00000000000000000000	      0.00000000000000000000	     31.16828704708613173580	     -0.35990727603273015012	      2.35256715673085148310	    -32.56502340492041014386	      3.94504713826410480237	      0.00000000000000000000	      0.00000000000000000000	    -13.31076278625061704020	      2.62985652678059800280	      6.68477418198841810693
      7.63333333333333285964	     -0.95069513919055192996	     -2.03062376700931634943	     -0.55340341286106464747	      0.06134793137422068360	      0.83639594794729765770	     -0.02860356519895238328	     -1.78553877753242096205	     -0.22062776292964703106	     -1.36189758488121004376	    -55.00534023670829952835	    -13.54371131168063158157	      0.00000000000000000000	      0.00000000000000000000	     31.04778178888504669430	      0.22977571560987611332	      1.49673192565477641836	    -32.69537239035303599621	      4.98772469832553699831	      0.00000000000000000000	      0.00000000000000000000	    -12.64466519963875512644	      1.65553171542577204356	      6.62386803231804766057
